<mxfile host="app.diagrams.net" modified="2023-05-30T06:19:19.839Z" agent="Mozilla/5.0 (Windows NT 10.0; Win64; x64) AppleWebKit/537.36 (KHTML, like Gecko) Chrome/113.0.0.0 Safari/537.36" version="21.3.5" etag="nZ2InFBrRBDucJYpCFO0" type="github">
  <diagram name="第 1 页" id="T3U8ABsXLm7v_3UPz6AF">
    <mxGraphModel>
      <root>
        <mxCell id="0" />
        <mxCell id="1" parent="0" />
      </root>
    </mxGraphModel>
  </diagram>
</mxfile>
